# xmcd CD database file
# Copyright (C) 1997 Ti Kan
# 
# Track frame offsets:
#     180
#     13452
#     25462
#     39030
#     50020
#     63432
#     76100
#     90450
#     105682
#     117655
#     131280
#     146817
# 
# Disc length: 2083 seconds
# 
# Revision: 1
# Processed by: cddbd v1.4b41PL1 Copyright (c) Steve Scherf et al.
# Submitted via: DiscPlay 4.0.2
# 
DISCID=a008210c
DTITLE=Barry and Holly Tashian - Ready For Love
DYEAR=1900
DGENRE=
TTITLE0=Ready For Love
TTITLE1=Let Me See The Light
TTITLE2=Heaven With You
TTITLE3=Heart Full Of Memories
TTITLE4=Hearts That Break
TTITLE5=Highway 86
TTITLE6=The Price Of Pride
TTITLE7=The Diamond
TTITLE8=Ring Of Gold
TTITLE9=The Memories Remain
TTITLE10=If I Knew Then
TTITLE11=This Old Road
EXTD=
EXTT0=
EXTT1=
EXTT2=
EXTT3=
EXTT4=
EXTT5=
EXTT6=
EXTT7=
EXTT8=
EXTT9=
EXTT10=
EXTT11=
PLAYORDER=
